<mxfile host="65bd71144e">
    <diagram id="FsfQrV8Gz_uJQ-x6BshP" name="add-cadeiras-alunos">
        <mxGraphModel dx="2850" dy="2054" grid="1" gridSize="10" guides="1" tooltips="1" connect="1" arrows="1" fold="1" page="0" pageScale="1" pageWidth="850" pageHeight="1100" math="0" shadow="0">
            <root>
                <mxCell id="0"/>
                <mxCell id="1" parent="0"/>
                <mxCell id="99" value="" style="group" parent="1" vertex="1" connectable="0">
                    <mxGeometry x="-380" y="30" width="600" height="340" as="geometry"/>
                </mxCell>
                <mxCell id="98" value="" style="group" parent="99" vertex="1" connectable="0">
                    <mxGeometry width="599.9999999999999" height="340" as="geometry"/>
                </mxCell>
                <mxCell id="26" value="" style="rounded=0;whiteSpace=wrap;html=1;fillColor=#f8cecc;strokeColor=#b85450;" parent="98" vertex="1">
                    <mxGeometry y="35.17241379310345" width="599.9999999999999" height="304.8275862068965" as="geometry"/>
                </mxCell>
                <mxCell id="97" value="Data" style="text;html=1;strokeColor=none;fillColor=none;align=center;verticalAlign=middle;whiteSpace=wrap;rounded=0;" parent="98" vertex="1">
                    <mxGeometry x="514.2857142857142" width="85.71428571428572" height="35.17241379310345" as="geometry"/>
                </mxCell>
                <mxCell id="28" value="AddCadeirasAlunosRepo" style="rounded=1;whiteSpace=wrap;dashed=1;html=1;fillColor=#f5f5f5;fontColor=#333333;strokeColor=#666666;" parent="98" vertex="1">
                    <mxGeometry x="50.00000000000002" y="53.125" width="155.89" height="70.348125" as="geometry"/>
                </mxCell>
                <mxCell id="193" style="edgeStyle=orthogonalEdgeStyle;shape=connector;rounded=1;html=1;exitX=0;exitY=0.75;exitDx=0;exitDy=0;entryX=0.5;entryY=1;entryDx=0;entryDy=0;labelBackgroundColor=default;strokeColor=#b85450;strokeWidth=2;fontFamily=Helvetica;fontSize=11;fontColor=default;endArrow=classic;fillColor=#f8cecc;" edge="1" parent="98" source="27" target="190">
                    <mxGeometry relative="1" as="geometry"/>
                </mxCell>
                <mxCell id="194" style="edgeStyle=orthogonalEdgeStyle;shape=connector;rounded=1;html=1;exitX=0.25;exitY=0;exitDx=0;exitDy=0;entryX=1;entryY=0.5;entryDx=0;entryDy=0;labelBackgroundColor=default;strokeColor=#b85450;strokeWidth=2;fontFamily=Helvetica;fontSize=11;fontColor=default;endArrow=classic;fillColor=#f8cecc;" edge="1" parent="98" source="27" target="28">
                    <mxGeometry relative="1" as="geometry">
                        <Array as="points">
                            <mxPoint x="250" y="255"/>
                            <mxPoint x="250" y="88"/>
                        </Array>
                    </mxGeometry>
                </mxCell>
                <mxCell id="195" style="edgeStyle=orthogonalEdgeStyle;shape=connector;rounded=1;html=1;exitX=0.75;exitY=0;exitDx=0;exitDy=0;entryX=0;entryY=0.5;entryDx=0;entryDy=0;labelBackgroundColor=default;strokeColor=#b85450;strokeWidth=2;fontFamily=Helvetica;fontSize=11;fontColor=default;endArrow=classic;fillColor=#f8cecc;" edge="1" parent="98" source="27" target="191">
                    <mxGeometry relative="1" as="geometry">
                        <Array as="points">
                            <mxPoint x="330" y="255"/>
                            <mxPoint x="330" y="88"/>
                        </Array>
                    </mxGeometry>
                </mxCell>
                <mxCell id="196" style="edgeStyle=orthogonalEdgeStyle;shape=connector;rounded=1;html=1;exitX=1;exitY=0.25;exitDx=0;exitDy=0;entryX=0.5;entryY=1;entryDx=0;entryDy=0;labelBackgroundColor=default;strokeColor=#b85450;strokeWidth=2;fontFamily=Helvetica;fontSize=11;fontColor=default;endArrow=classic;fillColor=#f8cecc;" edge="1" parent="98" source="27" target="192">
                    <mxGeometry relative="1" as="geometry"/>
                </mxCell>
                <mxCell id="27" value="DbAddCadeirasAlunos" style="rounded=0;whiteSpace=wrap;html=1;fillColor=#f5f5f5;fontColor=#333333;strokeColor=#666666;" parent="98" vertex="1">
                    <mxGeometry x="175.71" y="255" width="212.685" height="70.348125" as="geometry"/>
                </mxCell>
                <mxCell id="190" value="CheckAlunoByIdRepo" style="rounded=1;whiteSpace=wrap;dashed=1;html=1;fillColor=#f5f5f5;fontColor=#333333;strokeColor=#666666;" vertex="1" parent="98">
                    <mxGeometry x="50.00000000000006" y="152.41562499999998" width="155.89" height="70.348125" as="geometry"/>
                </mxCell>
                <mxCell id="191" value="CheckCadeiraByIdRepo" style="rounded=1;whiteSpace=wrap;dashed=1;html=1;fillColor=#f5f5f5;fontColor=#333333;strokeColor=#666666;" vertex="1" parent="98">
                    <mxGeometry x="381.4600000000001" y="53.125" width="155.89" height="70.348125" as="geometry"/>
                </mxCell>
                <mxCell id="192" value="CountCadeirasAlunosByIdRepo" style="rounded=1;whiteSpace=wrap;dashed=1;html=1;fillColor=#f5f5f5;fontColor=#333333;strokeColor=#666666;" vertex="1" parent="98">
                    <mxGeometry x="371.46" y="152.41562499999998" width="175.89" height="70.348125" as="geometry"/>
                </mxCell>
                <mxCell id="102" value="" style="group" parent="1" vertex="1" connectable="0">
                    <mxGeometry x="330" y="-60" width="450" height="410.00000000000006" as="geometry"/>
                </mxCell>
                <mxCell id="100" value="" style="group" parent="102" vertex="1" connectable="0">
                    <mxGeometry y="49.2" width="449.9999999999999" height="360.80000000000007" as="geometry"/>
                </mxCell>
                <mxCell id="92" value="" style="rounded=0;whiteSpace=wrap;html=1;fillColor=#fff2cc;strokeColor=#d6b656;" parent="100" vertex="1">
                    <mxGeometry width="449.9999999999999" height="360.8" as="geometry"/>
                </mxCell>
                <mxCell id="93" value="AddCadeirasAlunos" style="rounded=1;whiteSpace=wrap;html=1;dashed=1;fillColor=#f5f5f5;fontColor=#333333;strokeColor=#666666;" parent="100" vertex="1">
                    <mxGeometry x="147.86" y="20.80000000000001" width="154.29" height="69.6" as="geometry"/>
                </mxCell>
                <mxCell id="176" value="CheckAlunoById" style="rounded=1;whiteSpace=wrap;html=1;dashed=1;fillColor=#f5f5f5;fontColor=#333333;strokeColor=#666666;" vertex="1" parent="100">
                    <mxGeometry x="250.00000000000003" y="130.8" width="154.29" height="69.6" as="geometry"/>
                </mxCell>
                <mxCell id="177" value="CheckCadeiraById" style="rounded=1;whiteSpace=wrap;html=1;dashed=1;fillColor=#f5f5f5;fontColor=#333333;strokeColor=#666666;" vertex="1" parent="100">
                    <mxGeometry x="50.00000000000003" y="260.8" width="154.29" height="69.6" as="geometry"/>
                </mxCell>
                <mxCell id="178" value="CountCadeirasAlunosById" style="rounded=1;whiteSpace=wrap;html=1;dashed=1;fillColor=#f5f5f5;fontColor=#333333;strokeColor=#666666;" vertex="1" parent="100">
                    <mxGeometry x="250" y="260.80000000000007" width="154.29" height="69.6" as="geometry"/>
                </mxCell>
                <mxCell id="179" value="LoadCadeiraById" style="rounded=1;whiteSpace=wrap;html=1;dashed=1;fillColor=#f5f5f5;fontColor=#333333;strokeColor=#666666;" vertex="1" parent="100">
                    <mxGeometry x="50" y="130.8" width="154.29" height="69.6" as="geometry"/>
                </mxCell>
                <mxCell id="101" value="Domain" style="text;html=1;strokeColor=none;fillColor=none;align=center;verticalAlign=middle;whiteSpace=wrap;rounded=0;" parent="102" vertex="1">
                    <mxGeometry x="372.8571428571428" width="77.14285714285714" height="49.2" as="geometry"/>
                </mxCell>
                <mxCell id="105" value="Prisma" style="rounded=0;whiteSpace=wrap;html=1;fillColor=#bac8d3;strokeColor=#000000;fontColor=#000000;" parent="1" vertex="1">
                    <mxGeometry x="-127.5" y="-350" width="100" height="60" as="geometry"/>
                </mxCell>
                <mxCell id="110" value="" style="group" parent="1" vertex="1" connectable="0">
                    <mxGeometry x="-255" y="-230" width="350" height="220" as="geometry"/>
                </mxCell>
                <mxCell id="108" value="" style="group" parent="110" vertex="1" connectable="0">
                    <mxGeometry y="30" width="350" height="190" as="geometry"/>
                </mxCell>
                <mxCell id="103" value="" style="rounded=0;whiteSpace=wrap;html=1;fillColor=#dae8fc;strokeColor=#6c8ebf;" parent="108" vertex="1">
                    <mxGeometry width="350" height="190" as="geometry"/>
                </mxCell>
                <mxCell id="104" value="CadeirasAlunosPrismaRepo" style="rounded=0;whiteSpace=wrap;html=1;fillColor=#f5f5f5;fontColor=#333333;strokeColor=#666666;" parent="108" vertex="1">
                    <mxGeometry x="98.53999999999999" y="65" width="157.92" height="60" as="geometry"/>
                </mxCell>
                <mxCell id="109" value="Infra" style="text;html=1;strokeColor=none;fillColor=none;align=center;verticalAlign=middle;whiteSpace=wrap;rounded=0;" parent="110" vertex="1">
                    <mxGeometry x="300" width="50" height="30" as="geometry"/>
                </mxCell>
                <mxCell id="114" value="" style="group" parent="1" vertex="1" connectable="0">
                    <mxGeometry x="900" y="70" width="470" height="330" as="geometry"/>
                </mxCell>
                <mxCell id="113" value="Presentation" style="text;html=1;strokeColor=none;fillColor=none;align=center;verticalAlign=middle;whiteSpace=wrap;rounded=0;dashed=1;fontColor=#FFFFFF;" parent="114" vertex="1">
                    <mxGeometry x="390" width="80" height="30" as="geometry"/>
                </mxCell>
                <mxCell id="128" value="" style="group" parent="114" vertex="1" connectable="0">
                    <mxGeometry y="30" width="470" height="300" as="geometry"/>
                </mxCell>
                <mxCell id="112" value="" style="rounded=0;whiteSpace=wrap;html=1;fillColor=#d5e8d4;strokeColor=#82b366;" parent="128" vertex="1">
                    <mxGeometry width="470" height="300" as="geometry"/>
                </mxCell>
                <mxCell id="140" style="edgeStyle=orthogonalEdgeStyle;shape=connector;rounded=1;html=1;exitX=0.25;exitY=1;exitDx=0;exitDy=0;labelBackgroundColor=default;strokeColor=#82b366;strokeWidth=2;fontFamily=Helvetica;fontSize=12;fontColor=#333333;endArrow=classic;fillColor=#d5e8d4;" parent="128" source="115" target="136" edge="1">
                    <mxGeometry relative="1" as="geometry"/>
                </mxCell>
                <mxCell id="165" style="edgeStyle=orthogonalEdgeStyle;html=1;exitX=1;exitY=0.5;exitDx=0;exitDy=0;entryX=0;entryY=0.5;entryDx=0;entryDy=0;strokeWidth=2;fillColor=#d5e8d4;strokeColor=#82b366;" edge="1" parent="128" source="115" target="164">
                    <mxGeometry relative="1" as="geometry"/>
                </mxCell>
                <mxCell id="115" value="AddCadeirasAlunosController" style="rounded=0;whiteSpace=wrap;html=1;fontColor=#333333;fillColor=#f5f5f5;strokeColor=#666666;" parent="128" vertex="1">
                    <mxGeometry x="40" y="60" width="165" height="60" as="geometry"/>
                </mxCell>
                <mxCell id="117" value="HttpResponse" style="rounded=1;whiteSpace=wrap;html=1;fontColor=#333333;fillColor=#f5f5f5;strokeColor=#666666;dashed=1;" parent="128" vertex="1">
                    <mxGeometry x="160" y="170" width="90" height="50" as="geometry"/>
                </mxCell>
                <mxCell id="123" value="Controller" style="rounded=1;whiteSpace=wrap;html=1;fontColor=#333333;fillColor=#f5f5f5;strokeColor=#666666;dashed=1;" parent="128" vertex="1">
                    <mxGeometry x="270" y="170" width="85" height="50" as="geometry"/>
                </mxCell>
                <mxCell id="125" style="edgeStyle=orthogonalEdgeStyle;html=1;exitX=0.5;exitY=1;exitDx=0;exitDy=0;fontFamily=Helvetica;fontSize=12;fontColor=#333333;fillColor=#d5e8d4;strokeColor=#82b366;strokeWidth=2;" parent="128" source="115" target="117" edge="1">
                    <mxGeometry relative="1" as="geometry">
                        <Array as="points">
                            <mxPoint x="123" y="160"/>
                            <mxPoint x="205" y="160"/>
                        </Array>
                    </mxGeometry>
                </mxCell>
                <mxCell id="126" style="shape=connector;rounded=1;html=1;exitX=0.75;exitY=1;exitDx=0;exitDy=0;entryX=0.25;entryY=0;entryDx=0;entryDy=0;labelBackgroundColor=default;strokeColor=#82b366;fontFamily=Helvetica;fontSize=12;fontColor=#333333;endArrow=classic;fillColor=#d5e8d4;strokeWidth=2;edgeStyle=orthogonalEdgeStyle;" parent="128" source="115" target="123" edge="1">
                    <mxGeometry relative="1" as="geometry"/>
                </mxCell>
                <mxCell id="136" value="HttpRequest" style="rounded=1;whiteSpace=wrap;html=1;fontColor=#333333;fillColor=#f5f5f5;strokeColor=#666666;dashed=1;" parent="128" vertex="1">
                    <mxGeometry x="40" y="170" width="90" height="50" as="geometry"/>
                </mxCell>
                <mxCell id="164" value="Validation" style="rounded=1;whiteSpace=wrap;html=1;fontColor=#333333;fillColor=#f5f5f5;strokeColor=#666666;dashed=1;" vertex="1" parent="128">
                    <mxGeometry x="300" y="65" width="85" height="50" as="geometry"/>
                </mxCell>
                <mxCell id="133" style="edgeStyle=orthogonalEdgeStyle;shape=connector;rounded=1;html=1;exitX=0.5;exitY=0;exitDx=0;exitDy=0;entryX=0.5;entryY=1;entryDx=0;entryDy=0;labelBackgroundColor=default;strokeColor=#6c8ebf;strokeWidth=2;fontFamily=Helvetica;fontSize=12;fontColor=#333333;endArrow=classic;fillColor=#dae8fc;" parent="1" source="104" target="105" edge="1">
                    <mxGeometry relative="1" as="geometry"/>
                </mxCell>
                <mxCell id="134" style="edgeStyle=orthogonalEdgeStyle;shape=connector;rounded=1;html=1;exitX=0.25;exitY=1;exitDx=0;exitDy=0;labelBackgroundColor=default;strokeColor=#6c8ebf;strokeWidth=2;fontFamily=Helvetica;fontSize=12;fontColor=#333333;endArrow=classic;fillColor=#dae8fc;" parent="1" source="104" target="28" edge="1">
                    <mxGeometry relative="1" as="geometry"/>
                </mxCell>
                <mxCell id="146" value="&lt;font color=&quot;#000000&quot;&gt;Express&lt;/font&gt;" style="rounded=0;whiteSpace=wrap;html=1;strokeColor=#000000;fontFamily=Helvetica;fontSize=12;fillColor=#bac8d3;" parent="1" vertex="1">
                    <mxGeometry x="1440" y="520" width="140" height="60" as="geometry"/>
                </mxCell>
                <mxCell id="154" value="" style="group" parent="1" vertex="1" connectable="0">
                    <mxGeometry x="680" y="470" width="700" height="260" as="geometry"/>
                </mxCell>
                <mxCell id="141" value="" style="rounded=0;whiteSpace=wrap;html=1;strokeColor=#9673a6;fontFamily=Helvetica;fontSize=12;fillColor=#e1d5e7;" parent="154" vertex="1">
                    <mxGeometry y="30" width="700" height="230" as="geometry"/>
                </mxCell>
                <mxCell id="142" value="App" style="rounded=0;whiteSpace=wrap;html=1;strokeColor=#666666;fontFamily=Helvetica;fontSize=12;fontColor=#333333;fillColor=#f5f5f5;" parent="154" vertex="1">
                    <mxGeometry x="50" y="115" width="120" height="60" as="geometry"/>
                </mxCell>
                <mxCell id="143" value="CadeirasAlunosRouter" style="rounded=0;whiteSpace=wrap;html=1;strokeColor=#666666;fontFamily=Helvetica;fontSize=12;fontColor=#333333;fillColor=#f5f5f5;" parent="154" vertex="1">
                    <mxGeometry x="215" y="115" width="145" height="60" as="geometry"/>
                </mxCell>
                <mxCell id="144" value="ExpressRouterAdapter" style="rounded=0;whiteSpace=wrap;html=1;strokeColor=#666666;fontFamily=Helvetica;fontSize=12;fontColor=#333333;fillColor=#f5f5f5;" parent="154" vertex="1">
                    <mxGeometry x="480" y="70" width="140" height="60" as="geometry"/>
                </mxCell>
                <mxCell id="145" value="AddCadeirasAlunosFactory" style="rounded=0;whiteSpace=wrap;html=1;strokeColor=#666666;fontFamily=Helvetica;fontSize=12;fontColor=#333333;fillColor=#f5f5f5;" parent="154" vertex="1">
                    <mxGeometry x="472.5" y="160" width="155" height="60" as="geometry"/>
                </mxCell>
                <mxCell id="153" value="Main" style="text;html=1;strokeColor=none;fillColor=none;align=center;verticalAlign=middle;whiteSpace=wrap;rounded=0;fontFamily=Helvetica;fontSize=12;fontColor=#FFFFFF;" parent="154" vertex="1">
                    <mxGeometry x="640" width="60" height="30" as="geometry"/>
                </mxCell>
                <mxCell id="148" style="edgeStyle=orthogonalEdgeStyle;shape=connector;rounded=1;html=1;exitX=1;exitY=0.5;exitDx=0;exitDy=0;entryX=0;entryY=0.5;entryDx=0;entryDy=0;labelBackgroundColor=default;strokeColor=#9673a6;strokeWidth=2;fontFamily=Helvetica;fontSize=12;fontColor=#000000;endArrow=classic;fillColor=#e1d5e7;" parent="154" source="142" target="143" edge="1">
                    <mxGeometry relative="1" as="geometry"/>
                </mxCell>
                <mxCell id="151" style="edgeStyle=orthogonalEdgeStyle;shape=connector;rounded=1;html=1;exitX=1;exitY=0.25;exitDx=0;exitDy=0;labelBackgroundColor=default;strokeColor=#9673a6;strokeWidth=2;fontFamily=Helvetica;fontSize=12;fontColor=#000000;endArrow=classic;fillColor=#e1d5e7;" parent="154" source="143" target="144" edge="1">
                    <mxGeometry relative="1" as="geometry"/>
                </mxCell>
                <mxCell id="150" style="edgeStyle=orthogonalEdgeStyle;shape=connector;rounded=1;html=1;exitX=1;exitY=0.75;exitDx=0;exitDy=0;labelBackgroundColor=default;strokeColor=#9673a6;strokeWidth=2;fontFamily=Helvetica;fontSize=12;fontColor=#000000;endArrow=classic;fillColor=#e1d5e7;" parent="154" source="143" target="145" edge="1">
                    <mxGeometry relative="1" as="geometry"/>
                </mxCell>
                <mxCell id="147" style="edgeStyle=orthogonalEdgeStyle;shape=connector;rounded=1;html=1;exitX=1;exitY=0.5;exitDx=0;exitDy=0;labelBackgroundColor=default;strokeColor=#9673a6;strokeWidth=2;fontFamily=Helvetica;fontSize=12;fontColor=#000000;endArrow=classic;fillColor=#e1d5e7;" parent="1" source="144" target="146" edge="1">
                    <mxGeometry relative="1" as="geometry"/>
                </mxCell>
                <mxCell id="155" style="edgeStyle=orthogonalEdgeStyle;shape=connector;rounded=1;html=1;exitX=0;exitY=0.5;exitDx=0;exitDy=0;entryX=0.002;entryY=0.49;entryDx=0;entryDy=0;labelBackgroundColor=default;strokeColor=#9673a6;strokeWidth=2;fontFamily=Helvetica;fontSize=12;fontColor=#FFFFFF;endArrow=classic;fillColor=#e1d5e7;entryPerimeter=0;" parent="1" source="141" target="26" edge="1">
                    <mxGeometry relative="1" as="geometry">
                        <Array as="points">
                            <mxPoint x="-420" y="615"/>
                            <mxPoint x="-420" y="215"/>
                        </Array>
                    </mxGeometry>
                </mxCell>
                <mxCell id="158" style="edgeStyle=orthogonalEdgeStyle;shape=connector;rounded=1;html=1;exitX=0;exitY=0.75;exitDx=0;exitDy=0;labelBackgroundColor=default;strokeColor=#9673a6;strokeWidth=2;fontFamily=Helvetica;fontSize=12;fontColor=#FFFFFF;endArrow=classic;fillColor=#e1d5e7;entryX=0;entryY=0.25;entryDx=0;entryDy=0;" parent="1" source="141" target="103" edge="1">
                    <mxGeometry relative="1" as="geometry">
                        <Array as="points">
                            <mxPoint x="-480" y="673"/>
                            <mxPoint x="-480" y="-152"/>
                            <mxPoint x="-255" y="-152"/>
                        </Array>
                    </mxGeometry>
                </mxCell>
                <mxCell id="160" style="edgeStyle=orthogonalEdgeStyle;shape=connector;rounded=1;html=1;exitX=0.5;exitY=0;exitDx=0;exitDy=0;entryX=0.5;entryY=1;entryDx=0;entryDy=0;labelBackgroundColor=default;strokeColor=#9673a6;strokeWidth=2;fontFamily=Helvetica;fontSize=12;fontColor=#FFFFFF;endArrow=classic;fillColor=#e1d5e7;" parent="1" source="144" target="117" edge="1">
                    <mxGeometry relative="1" as="geometry"/>
                </mxCell>
                <mxCell id="161" style="edgeStyle=orthogonalEdgeStyle;shape=connector;rounded=1;html=1;exitX=0.75;exitY=0;exitDx=0;exitDy=0;entryX=0.5;entryY=1;entryDx=0;entryDy=0;labelBackgroundColor=default;strokeColor=#9673a6;strokeWidth=2;fontFamily=Helvetica;fontSize=12;fontColor=#FFFFFF;endArrow=classic;fillColor=#e1d5e7;" parent="1" source="144" target="123" edge="1">
                    <mxGeometry relative="1" as="geometry">
                        <Array as="points">
                            <mxPoint x="1265" y="410"/>
                            <mxPoint x="1213" y="410"/>
                        </Array>
                    </mxGeometry>
                </mxCell>
                <mxCell id="162" style="edgeStyle=orthogonalEdgeStyle;shape=connector;rounded=1;html=1;exitX=1;exitY=0.5;exitDx=0;exitDy=0;entryX=1;entryY=0.5;entryDx=0;entryDy=0;labelBackgroundColor=default;strokeColor=#9673a6;strokeWidth=2;fontFamily=Helvetica;fontSize=12;fontColor=#FFFFFF;endArrow=classic;fillColor=#e1d5e7;" parent="1" source="141" target="112" edge="1">
                    <mxGeometry relative="1" as="geometry">
                        <Array as="points">
                            <mxPoint x="1640" y="615"/>
                            <mxPoint x="1640" y="250"/>
                        </Array>
                    </mxGeometry>
                </mxCell>
                <mxCell id="163" style="edgeStyle=orthogonalEdgeStyle;html=1;exitX=0.25;exitY=0;exitDx=0;exitDy=0;entryX=0.47;entryY=0.98;entryDx=0;entryDy=0;entryPerimeter=0;fillColor=#e1d5e7;strokeColor=#9673a6;strokeWidth=2;" edge="1" parent="1" source="144" target="136">
                    <mxGeometry relative="1" as="geometry">
                        <Array as="points">
                            <mxPoint x="1195" y="450"/>
                            <mxPoint x="982" y="450"/>
                        </Array>
                    </mxGeometry>
                </mxCell>
                <mxCell id="166" value="" style="group" vertex="1" connectable="0" parent="1">
                    <mxGeometry x="990" y="-190" width="290" height="190" as="geometry"/>
                </mxCell>
                <mxCell id="167" value="" style="rounded=0;whiteSpace=wrap;html=1;strokeColor=#b46504;fontFamily=Helvetica;fontSize=12;fillColor=#fad7ac;" vertex="1" parent="166">
                    <mxGeometry y="25.90909090909091" width="290" height="164.0909090909091" as="geometry"/>
                </mxCell>
                <mxCell id="168" value="RequiredFieldValidation" style="rounded=0;whiteSpace=wrap;html=1;strokeColor=#666666;fontFamily=Helvetica;fontSize=12;fontColor=#333333;fillColor=#f5f5f5;" vertex="1" parent="166">
                    <mxGeometry x="72.5" y="76.37" width="145" height="63.16" as="geometry"/>
                </mxCell>
                <mxCell id="169" value="Validation" style="text;html=1;strokeColor=none;fillColor=none;align=center;verticalAlign=middle;whiteSpace=wrap;rounded=0;fontFamily=Helvetica;fontSize=12;fontColor=#FFFFFF;" vertex="1" parent="166">
                    <mxGeometry x="240" width="50" height="25.91" as="geometry"/>
                </mxCell>
                <mxCell id="175" style="edgeStyle=orthogonalEdgeStyle;html=1;exitX=0.5;exitY=1;exitDx=0;exitDy=0;strokeWidth=2;fillColor=#ffe6cc;strokeColor=#d79b00;" edge="1" parent="1" source="168" target="164">
                    <mxGeometry relative="1" as="geometry"/>
                </mxCell>
                <mxCell id="184" style="edgeStyle=orthogonalEdgeStyle;html=1;exitX=0;exitY=1;exitDx=0;exitDy=0;entryX=0.998;entryY=0.573;entryDx=0;entryDy=0;entryPerimeter=0;strokeWidth=2;fillColor=#d5e8d4;strokeColor=#82b366;" edge="1" parent="1" source="115" target="178">
                    <mxGeometry relative="1" as="geometry">
                        <Array as="points">
                            <mxPoint x="890" y="220"/>
                            <mxPoint x="890" y="290"/>
                        </Array>
                    </mxGeometry>
                </mxCell>
                <mxCell id="185" style="edgeStyle=orthogonalEdgeStyle;shape=connector;rounded=1;html=1;exitX=0;exitY=0.75;exitDx=0;exitDy=0;entryX=0.75;entryY=0;entryDx=0;entryDy=0;labelBackgroundColor=default;strokeColor=#82b366;strokeWidth=2;fontFamily=Helvetica;fontSize=11;fontColor=default;endArrow=classic;fillColor=#d5e8d4;" edge="1" parent="1" source="115" target="177">
                    <mxGeometry relative="1" as="geometry"/>
                </mxCell>
                <mxCell id="186" style="edgeStyle=orthogonalEdgeStyle;shape=connector;rounded=1;html=1;exitX=0;exitY=0.5;exitDx=0;exitDy=0;labelBackgroundColor=default;strokeColor=#82b366;strokeWidth=2;fontFamily=Helvetica;fontSize=11;fontColor=default;endArrow=classic;fillColor=#d5e8d4;" edge="1" parent="1" source="115" target="176">
                    <mxGeometry relative="1" as="geometry"/>
                </mxCell>
                <mxCell id="187" style="edgeStyle=orthogonalEdgeStyle;shape=connector;rounded=1;html=1;exitX=0;exitY=0.25;exitDx=0;exitDy=0;entryX=0.75;entryY=0;entryDx=0;entryDy=0;labelBackgroundColor=default;strokeColor=#82b366;strokeWidth=2;fontFamily=Helvetica;fontSize=11;fontColor=default;endArrow=classic;fillColor=#d5e8d4;" edge="1" parent="1" source="115" target="179">
                    <mxGeometry relative="1" as="geometry">
                        <Array as="points">
                            <mxPoint x="860" y="175"/>
                            <mxPoint x="860" y="130"/>
                            <mxPoint x="737" y="130"/>
                            <mxPoint x="737" y="100"/>
                            <mxPoint x="496" y="100"/>
                        </Array>
                    </mxGeometry>
                </mxCell>
                <mxCell id="188" style="edgeStyle=orthogonalEdgeStyle;shape=connector;rounded=1;html=1;exitX=0;exitY=0;exitDx=0;exitDy=0;entryX=1;entryY=0.5;entryDx=0;entryDy=0;labelBackgroundColor=default;strokeColor=#82b366;strokeWidth=2;fontFamily=Helvetica;fontSize=11;fontColor=default;endArrow=classic;fillColor=#d5e8d4;" edge="1" parent="1" source="115" target="93">
                    <mxGeometry relative="1" as="geometry">
                        <Array as="points">
                            <mxPoint x="910" y="160"/>
                            <mxPoint x="910" y="45"/>
                        </Array>
                    </mxGeometry>
                </mxCell>
                <mxCell id="197" style="edgeStyle=orthogonalEdgeStyle;shape=connector;rounded=1;html=1;exitX=0;exitY=0.5;exitDx=0;exitDy=0;entryX=0.007;entryY=0.579;entryDx=0;entryDy=0;labelBackgroundColor=default;strokeColor=#6c8ebf;strokeWidth=2;fontFamily=Helvetica;fontSize=11;fontColor=default;endArrow=classic;fillColor=#dae8fc;entryPerimeter=0;" edge="1" parent="1" source="104" target="190">
                    <mxGeometry relative="1" as="geometry">
                        <Array as="points">
                            <mxPoint x="-360" y="-105"/>
                            <mxPoint x="-360" y="223"/>
                        </Array>
                    </mxGeometry>
                </mxCell>
                <mxCell id="198" style="edgeStyle=orthogonalEdgeStyle;shape=connector;rounded=1;html=1;exitX=0.75;exitY=1;exitDx=0;exitDy=0;entryX=0.5;entryY=0;entryDx=0;entryDy=0;labelBackgroundColor=default;strokeColor=#6c8ebf;strokeWidth=2;fontFamily=Helvetica;fontSize=11;fontColor=default;endArrow=classic;fillColor=#dae8fc;" edge="1" parent="1" source="104" target="191">
                    <mxGeometry relative="1" as="geometry"/>
                </mxCell>
                <mxCell id="199" style="edgeStyle=orthogonalEdgeStyle;shape=connector;rounded=1;html=1;exitX=1;exitY=0.5;exitDx=0;exitDy=0;entryX=1;entryY=0.5;entryDx=0;entryDy=0;labelBackgroundColor=default;strokeColor=#6c8ebf;strokeWidth=2;fontFamily=Helvetica;fontSize=11;fontColor=default;endArrow=classic;fillColor=#dae8fc;" edge="1" parent="1" source="104" target="192">
                    <mxGeometry relative="1" as="geometry">
                        <Array as="points">
                            <mxPoint x="210" y="-105"/>
                            <mxPoint x="210" y="218"/>
                        </Array>
                    </mxGeometry>
                </mxCell>
                <mxCell id="200" style="edgeStyle=orthogonalEdgeStyle;shape=connector;rounded=1;html=1;exitX=1;exitY=0.75;exitDx=0;exitDy=0;entryX=0;entryY=0.5;entryDx=0;entryDy=0;labelBackgroundColor=default;strokeColor=#b85450;strokeWidth=2;fontFamily=Helvetica;fontSize=11;fontColor=default;endArrow=classic;fillColor=#f8cecc;" edge="1" parent="1" source="27" target="93">
                    <mxGeometry relative="1" as="geometry">
                        <Array as="points">
                            <mxPoint x="260" y="338"/>
                            <mxPoint x="260" y="45"/>
                        </Array>
                    </mxGeometry>
                </mxCell>
            </root>
        </mxGraphModel>
    </diagram>
    <diagram name="update-cadeiras-alunos" id="HgF2kgeQfv2loDu-MWEI">
        <mxGraphModel dx="2264" dy="1904" grid="1" gridSize="10" guides="1" tooltips="1" connect="1" arrows="1" fold="1" page="0" pageScale="1" pageWidth="850" pageHeight="1100" math="0" shadow="0">
            <root>
                <mxCell id="TssPMVuUMwK22EqT7b5r-0"/>
                <mxCell id="TssPMVuUMwK22EqT7b5r-1" parent="TssPMVuUMwK22EqT7b5r-0"/>
                <mxCell id="TssPMVuUMwK22EqT7b5r-2" value="" style="group" parent="TssPMVuUMwK22EqT7b5r-1" vertex="1" connectable="0">
                    <mxGeometry x="-170" y="30" width="430" height="320" as="geometry"/>
                </mxCell>
                <mxCell id="TssPMVuUMwK22EqT7b5r-3" value="" style="group" parent="TssPMVuUMwK22EqT7b5r-2" vertex="1" connectable="0">
                    <mxGeometry width="429.99999999999994" height="320" as="geometry"/>
                </mxCell>
                <mxCell id="TssPMVuUMwK22EqT7b5r-4" value="" style="rounded=0;whiteSpace=wrap;html=1;fillColor=#f8cecc;strokeColor=#b85450;" parent="TssPMVuUMwK22EqT7b5r-3" vertex="1">
                    <mxGeometry y="33.10344827586207" width="429.99999999999994" height="286.8965517241379" as="geometry"/>
                </mxCell>
                <mxCell id="TssPMVuUMwK22EqT7b5r-5" value="Data" style="text;html=1;strokeColor=none;fillColor=none;align=center;verticalAlign=middle;whiteSpace=wrap;rounded=0;" parent="TssPMVuUMwK22EqT7b5r-3" vertex="1">
                    <mxGeometry x="368.57142857142856" width="61.42857142857143" height="33.10344827586207" as="geometry"/>
                </mxCell>
                <mxCell id="TssPMVuUMwK22EqT7b5r-6" value="UpdateCadeirasAlunosRepo" style="rounded=0;whiteSpace=wrap;dashed=1;html=1;fillColor=#f5f5f5;fontColor=#333333;strokeColor=#666666;" parent="TssPMVuUMwK22EqT7b5r-3" vertex="1">
                    <mxGeometry x="21.499999999999982" y="70" width="181.59975" height="66.21" as="geometry"/>
                </mxCell>
                <mxCell id="z2JHeLDJXfYIkvLtSoSo-3" style="edgeStyle=orthogonalEdgeStyle;shape=connector;rounded=1;html=1;exitX=0.75;exitY=0;exitDx=0;exitDy=0;entryX=0.5;entryY=1;entryDx=0;entryDy=0;labelBackgroundColor=default;strokeColor=#b85450;strokeWidth=2;fontFamily=Helvetica;fontSize=11;fontColor=default;endArrow=classic;fillColor=#f8cecc;" edge="1" parent="TssPMVuUMwK22EqT7b5r-3" source="TssPMVuUMwK22EqT7b5r-7" target="z2JHeLDJXfYIkvLtSoSo-2">
                    <mxGeometry relative="1" as="geometry"/>
                </mxCell>
                <mxCell id="TssPMVuUMwK22EqT7b5r-7" value="DbUpdateCadeirasAlunos" style="rounded=0;whiteSpace=wrap;html=1;fillColor=#f5f5f5;fontColor=#333333;strokeColor=#666666;" parent="TssPMVuUMwK22EqT7b5r-3" vertex="1">
                    <mxGeometry x="117.29325" y="209.66" width="168.5385" height="66.21" as="geometry"/>
                </mxCell>
                <mxCell id="TssPMVuUMwK22EqT7b5r-8" style="edgeStyle=orthogonalEdgeStyle;shape=connector;rounded=1;html=1;exitX=0.25;exitY=0;exitDx=0;exitDy=0;entryX=0.5;entryY=1;entryDx=0;entryDy=0;labelBackgroundColor=default;strokeColor=#b85450;strokeWidth=2;fontFamily=Helvetica;fontSize=12;fontColor=#333333;endArrow=classic;fillColor=#f8cecc;" parent="TssPMVuUMwK22EqT7b5r-3" source="TssPMVuUMwK22EqT7b5r-7" target="TssPMVuUMwK22EqT7b5r-6" edge="1">
                    <mxGeometry relative="1" as="geometry"/>
                </mxCell>
                <mxCell id="z2JHeLDJXfYIkvLtSoSo-2" value="CheckCadeirasAlunosByIdRepo" style="rounded=0;whiteSpace=wrap;dashed=1;html=1;fillColor=#f5f5f5;fontColor=#333333;strokeColor=#666666;" vertex="1" parent="TssPMVuUMwK22EqT7b5r-3">
                    <mxGeometry x="215" y="70" width="181.59975" height="66.21" as="geometry"/>
                </mxCell>
                <mxCell id="TssPMVuUMwK22EqT7b5r-9" value="" style="group" parent="TssPMVuUMwK22EqT7b5r-1" vertex="1" connectable="0">
                    <mxGeometry x="360" y="100" width="350" height="250" as="geometry"/>
                </mxCell>
                <mxCell id="TssPMVuUMwK22EqT7b5r-10" value="" style="group" parent="TssPMVuUMwK22EqT7b5r-9" vertex="1" connectable="0">
                    <mxGeometry y="30" width="350" height="220" as="geometry"/>
                </mxCell>
                <mxCell id="TssPMVuUMwK22EqT7b5r-11" value="" style="rounded=0;whiteSpace=wrap;html=1;fillColor=#fff2cc;strokeColor=#d6b656;" parent="TssPMVuUMwK22EqT7b5r-10" vertex="1">
                    <mxGeometry width="350" height="220" as="geometry"/>
                </mxCell>
                <mxCell id="TssPMVuUMwK22EqT7b5r-12" value="UpdateCadeirasAlunos" style="rounded=0;whiteSpace=wrap;html=1;dashed=1;fillColor=#f5f5f5;fontColor=#333333;strokeColor=#666666;" parent="TssPMVuUMwK22EqT7b5r-10" vertex="1">
                    <mxGeometry x="107.5" y="30" width="135" height="60" as="geometry"/>
                </mxCell>
                <mxCell id="GU1V8cTXYejYF1MwiPmz-0" value="CheckCadeirasAlunosById" style="rounded=0;whiteSpace=wrap;html=1;dashed=1;fillColor=#f5f5f5;fontColor=#333333;strokeColor=#666666;" parent="TssPMVuUMwK22EqT7b5r-10" vertex="1">
                    <mxGeometry x="93.75" y="130" width="162.5" height="60" as="geometry"/>
                </mxCell>
                <mxCell id="TssPMVuUMwK22EqT7b5r-13" value="Domain" style="text;html=1;strokeColor=none;fillColor=none;align=center;verticalAlign=middle;whiteSpace=wrap;rounded=0;" parent="TssPMVuUMwK22EqT7b5r-9" vertex="1">
                    <mxGeometry x="290" width="60" height="30" as="geometry"/>
                </mxCell>
                <mxCell id="TssPMVuUMwK22EqT7b5r-14" value="Prisma" style="rounded=0;whiteSpace=wrap;html=1;fillColor=#bac8d3;strokeColor=#000000;fontColor=#000000;" parent="TssPMVuUMwK22EqT7b5r-1" vertex="1">
                    <mxGeometry x="-2.5" y="-360" width="100" height="60" as="geometry"/>
                </mxCell>
                <mxCell id="TssPMVuUMwK22EqT7b5r-15" value="" style="group" parent="TssPMVuUMwK22EqT7b5r-1" vertex="1" connectable="0">
                    <mxGeometry x="-130" y="-250" width="350" height="220" as="geometry"/>
                </mxCell>
                <mxCell id="TssPMVuUMwK22EqT7b5r-16" value="" style="group" parent="TssPMVuUMwK22EqT7b5r-15" vertex="1" connectable="0">
                    <mxGeometry y="30" width="350" height="190" as="geometry"/>
                </mxCell>
                <mxCell id="TssPMVuUMwK22EqT7b5r-17" value="" style="rounded=0;whiteSpace=wrap;html=1;fillColor=#dae8fc;strokeColor=#6c8ebf;" parent="TssPMVuUMwK22EqT7b5r-16" vertex="1">
                    <mxGeometry width="350" height="190" as="geometry"/>
                </mxCell>
                <mxCell id="TssPMVuUMwK22EqT7b5r-18" value="CadeirasAlunosPrismaRepo" style="rounded=0;whiteSpace=wrap;html=1;fillColor=#f5f5f5;fontColor=#333333;strokeColor=#666666;" parent="TssPMVuUMwK22EqT7b5r-16" vertex="1">
                    <mxGeometry x="98.53999999999999" y="65" width="157.92" height="60" as="geometry"/>
                </mxCell>
                <mxCell id="TssPMVuUMwK22EqT7b5r-19" value="Infra" style="text;html=1;strokeColor=none;fillColor=none;align=center;verticalAlign=middle;whiteSpace=wrap;rounded=0;" parent="TssPMVuUMwK22EqT7b5r-15" vertex="1">
                    <mxGeometry x="300" width="50" height="30" as="geometry"/>
                </mxCell>
                <mxCell id="TssPMVuUMwK22EqT7b5r-20" value="" style="group" parent="TssPMVuUMwK22EqT7b5r-1" vertex="1" connectable="0">
                    <mxGeometry x="930" y="70" width="530" height="330" as="geometry"/>
                </mxCell>
                <mxCell id="TssPMVuUMwK22EqT7b5r-21" value="Presentation" style="text;html=1;strokeColor=none;fillColor=none;align=center;verticalAlign=middle;whiteSpace=wrap;rounded=0;dashed=1;fontColor=#FFFFFF;" parent="TssPMVuUMwK22EqT7b5r-20" vertex="1">
                    <mxGeometry x="439.7872340425533" width="90.21276595744682" height="30" as="geometry"/>
                </mxCell>
                <mxCell id="TssPMVuUMwK22EqT7b5r-22" value="" style="group" parent="TssPMVuUMwK22EqT7b5r-20" vertex="1" connectable="0">
                    <mxGeometry y="30" width="530.0000000000001" height="300" as="geometry"/>
                </mxCell>
                <mxCell id="TssPMVuUMwK22EqT7b5r-23" value="" style="rounded=0;whiteSpace=wrap;html=1;fillColor=#d5e8d4;strokeColor=#82b366;" parent="TssPMVuUMwK22EqT7b5r-22" vertex="1">
                    <mxGeometry width="530.0000000000001" height="300" as="geometry"/>
                </mxCell>
                <mxCell id="TssPMVuUMwK22EqT7b5r-24" style="edgeStyle=orthogonalEdgeStyle;shape=connector;rounded=1;html=1;exitX=0.25;exitY=1;exitDx=0;exitDy=0;labelBackgroundColor=default;strokeColor=#82b366;strokeWidth=2;fontFamily=Helvetica;fontSize=12;fontColor=#333333;endArrow=classic;fillColor=#d5e8d4;" parent="TssPMVuUMwK22EqT7b5r-22" source="TssPMVuUMwK22EqT7b5r-25" target="TssPMVuUMwK22EqT7b5r-30" edge="1">
                    <mxGeometry relative="1" as="geometry"/>
                </mxCell>
                <mxCell id="GU1V8cTXYejYF1MwiPmz-14" style="edgeStyle=orthogonalEdgeStyle;shape=connector;rounded=1;html=1;exitX=1;exitY=0.5;exitDx=0;exitDy=0;entryX=0;entryY=0.5;entryDx=0;entryDy=0;labelBackgroundColor=default;strokeColor=#82b366;strokeWidth=2;fontFamily=Helvetica;fontSize=12;fontColor=#FFFFFF;endArrow=classic;fillColor=#d5e8d4;" parent="TssPMVuUMwK22EqT7b5r-22" source="TssPMVuUMwK22EqT7b5r-25" target="GU1V8cTXYejYF1MwiPmz-13" edge="1">
                    <mxGeometry relative="1" as="geometry"/>
                </mxCell>
                <mxCell id="TssPMVuUMwK22EqT7b5r-25" value="UpdateCadeirasAlunosController" style="rounded=0;whiteSpace=wrap;html=1;fontColor=#333333;fillColor=#f5f5f5;strokeColor=#666666;" parent="TssPMVuUMwK22EqT7b5r-22" vertex="1">
                    <mxGeometry x="53.559574468085124" y="60" width="208.61702127659575" height="60" as="geometry"/>
                </mxCell>
                <mxCell id="TssPMVuUMwK22EqT7b5r-26" value="HttpResponse" style="rounded=0;whiteSpace=wrap;html=1;fontColor=#333333;fillColor=#f5f5f5;strokeColor=#666666;dashed=1;" parent="TssPMVuUMwK22EqT7b5r-22" vertex="1">
                    <mxGeometry x="180.00361702127663" y="170" width="101.48936170212767" height="50" as="geometry"/>
                </mxCell>
                <mxCell id="TssPMVuUMwK22EqT7b5r-27" value="Controller" style="rounded=0;whiteSpace=wrap;html=1;fontColor=#333333;fillColor=#f5f5f5;strokeColor=#666666;dashed=1;" parent="TssPMVuUMwK22EqT7b5r-22" vertex="1">
                    <mxGeometry x="321.37957446808514" y="170" width="90.21276595744682" height="50" as="geometry"/>
                </mxCell>
                <mxCell id="TssPMVuUMwK22EqT7b5r-28" style="edgeStyle=orthogonalEdgeStyle;html=1;exitX=0.5;exitY=1;exitDx=0;exitDy=0;fontFamily=Helvetica;fontSize=12;fontColor=#333333;fillColor=#d5e8d4;strokeColor=#82b366;strokeWidth=2;" parent="TssPMVuUMwK22EqT7b5r-22" source="TssPMVuUMwK22EqT7b5r-25" target="TssPMVuUMwK22EqT7b5r-26" edge="1">
                    <mxGeometry relative="1" as="geometry">
                        <Array as="points">
                            <mxPoint x="158" y="160"/>
                            <mxPoint x="231" y="160"/>
                        </Array>
                    </mxGeometry>
                </mxCell>
                <mxCell id="TssPMVuUMwK22EqT7b5r-29" style="shape=connector;rounded=1;html=1;exitX=0.75;exitY=1;exitDx=0;exitDy=0;entryX=0.25;entryY=0;entryDx=0;entryDy=0;labelBackgroundColor=default;strokeColor=#82b366;fontFamily=Helvetica;fontSize=12;fontColor=#333333;endArrow=classic;fillColor=#d5e8d4;strokeWidth=2;edgeStyle=orthogonalEdgeStyle;" parent="TssPMVuUMwK22EqT7b5r-22" source="TssPMVuUMwK22EqT7b5r-25" target="TssPMVuUMwK22EqT7b5r-27" edge="1">
                    <mxGeometry relative="1" as="geometry"/>
                </mxCell>
                <mxCell id="TssPMVuUMwK22EqT7b5r-30" value="HttpRequest" style="rounded=0;whiteSpace=wrap;html=1;fontColor=#333333;fillColor=#f5f5f5;strokeColor=#666666;dashed=1;" parent="TssPMVuUMwK22EqT7b5r-22" vertex="1">
                    <mxGeometry x="53.557659574468104" y="170" width="101.48936170212767" height="50" as="geometry"/>
                </mxCell>
                <mxCell id="GU1V8cTXYejYF1MwiPmz-13" value="Validation" style="rounded=0;whiteSpace=wrap;html=1;strokeColor=#666666;fontFamily=Helvetica;fontSize=12;fontColor=#333333;fillColor=#f5f5f5;dashed=1;" parent="TssPMVuUMwK22EqT7b5r-22" vertex="1">
                    <mxGeometry x="321.38297872340434" y="60" width="180.42553191489364" height="60" as="geometry"/>
                </mxCell>
                <mxCell id="TssPMVuUMwK22EqT7b5r-31" style="edgeStyle=orthogonalEdgeStyle;rounded=1;html=1;exitX=0;exitY=0.5;exitDx=0;exitDy=0;entryX=1;entryY=0.5;entryDx=0;entryDy=0;labelBackgroundColor=default;strokeColor=#82b366;fontFamily=Helvetica;fontSize=12;fontColor=#333333;endArrow=classic;fillColor=#d5e8d4;strokeWidth=2;" parent="TssPMVuUMwK22EqT7b5r-1" source="TssPMVuUMwK22EqT7b5r-25" target="TssPMVuUMwK22EqT7b5r-12" edge="1">
                    <mxGeometry relative="1" as="geometry"/>
                </mxCell>
                <mxCell id="TssPMVuUMwK22EqT7b5r-32" style="edgeStyle=orthogonalEdgeStyle;shape=connector;rounded=1;html=1;exitX=1;exitY=0.5;exitDx=0;exitDy=0;entryX=0;entryY=0.5;entryDx=0;entryDy=0;labelBackgroundColor=default;strokeColor=#b85450;fontFamily=Helvetica;fontSize=12;fontColor=#333333;endArrow=classic;fillColor=#f8cecc;strokeWidth=2;" parent="TssPMVuUMwK22EqT7b5r-1" source="TssPMVuUMwK22EqT7b5r-7" target="TssPMVuUMwK22EqT7b5r-12" edge="1">
                    <mxGeometry relative="1" as="geometry">
                        <Array as="points">
                            <mxPoint x="126" y="260"/>
                            <mxPoint x="300" y="260"/>
                            <mxPoint x="300" y="190"/>
                        </Array>
                    </mxGeometry>
                </mxCell>
                <mxCell id="TssPMVuUMwK22EqT7b5r-33" style="edgeStyle=orthogonalEdgeStyle;shape=connector;rounded=1;html=1;exitX=0.5;exitY=0;exitDx=0;exitDy=0;entryX=0.5;entryY=1;entryDx=0;entryDy=0;labelBackgroundColor=default;strokeColor=#6c8ebf;strokeWidth=2;fontFamily=Helvetica;fontSize=12;fontColor=#333333;endArrow=classic;fillColor=#dae8fc;" parent="TssPMVuUMwK22EqT7b5r-1" source="TssPMVuUMwK22EqT7b5r-18" target="TssPMVuUMwK22EqT7b5r-14" edge="1">
                    <mxGeometry relative="1" as="geometry"/>
                </mxCell>
                <mxCell id="TssPMVuUMwK22EqT7b5r-34" style="edgeStyle=orthogonalEdgeStyle;shape=connector;rounded=1;html=1;exitX=0.25;exitY=1;exitDx=0;exitDy=0;labelBackgroundColor=default;strokeColor=#6c8ebf;strokeWidth=2;fontFamily=Helvetica;fontSize=12;fontColor=#333333;endArrow=classic;fillColor=#dae8fc;" parent="TssPMVuUMwK22EqT7b5r-1" source="TssPMVuUMwK22EqT7b5r-18" target="TssPMVuUMwK22EqT7b5r-6" edge="1">
                    <mxGeometry relative="1" as="geometry"/>
                </mxCell>
                <mxCell id="TssPMVuUMwK22EqT7b5r-35" value="&lt;font color=&quot;#000000&quot;&gt;Express&lt;/font&gt;" style="rounded=0;whiteSpace=wrap;html=1;strokeColor=#000000;fontFamily=Helvetica;fontSize=12;fillColor=#bac8d3;" parent="TssPMVuUMwK22EqT7b5r-1" vertex="1">
                    <mxGeometry x="1431.81" y="480" width="140" height="60" as="geometry"/>
                </mxCell>
                <mxCell id="TssPMVuUMwK22EqT7b5r-47" style="edgeStyle=orthogonalEdgeStyle;shape=connector;rounded=1;html=1;exitX=0;exitY=0.5;exitDx=0;exitDy=0;entryX=0;entryY=0.5;entryDx=0;entryDy=0;labelBackgroundColor=default;strokeColor=#9673a6;strokeWidth=2;fontFamily=Helvetica;fontSize=12;fontColor=#FFFFFF;endArrow=classic;fillColor=#e1d5e7;" parent="TssPMVuUMwK22EqT7b5r-1" source="TssPMVuUMwK22EqT7b5r-37" target="TssPMVuUMwK22EqT7b5r-4" edge="1">
                    <mxGeometry relative="1" as="geometry">
                        <Array as="points">
                            <mxPoint x="620" y="705"/>
                            <mxPoint x="620" y="615"/>
                            <mxPoint x="-200" y="615"/>
                            <mxPoint x="-200" y="207"/>
                        </Array>
                    </mxGeometry>
                </mxCell>
                <mxCell id="TssPMVuUMwK22EqT7b5r-48" style="edgeStyle=orthogonalEdgeStyle;shape=connector;rounded=1;html=1;exitX=0;exitY=0.75;exitDx=0;exitDy=0;entryX=0;entryY=0.5;entryDx=0;entryDy=0;labelBackgroundColor=default;strokeColor=#9673a6;strokeWidth=2;fontFamily=Helvetica;fontSize=12;fontColor=#FFFFFF;endArrow=classic;fillColor=#e1d5e7;" parent="TssPMVuUMwK22EqT7b5r-1" source="TssPMVuUMwK22EqT7b5r-37" target="TssPMVuUMwK22EqT7b5r-17" edge="1">
                    <mxGeometry relative="1" as="geometry">
                        <Array as="points">
                            <mxPoint x="600" y="783"/>
                            <mxPoint x="600" y="672"/>
                            <mxPoint x="-270" y="672"/>
                            <mxPoint x="-270" y="-105"/>
                            <mxPoint x="-130" y="-105"/>
                        </Array>
                    </mxGeometry>
                </mxCell>
                <mxCell id="TssPMVuUMwK22EqT7b5r-52" style="edgeStyle=orthogonalEdgeStyle;shape=connector;rounded=1;html=1;exitX=1;exitY=0.5;exitDx=0;exitDy=0;entryX=1;entryY=0.5;entryDx=0;entryDy=0;labelBackgroundColor=default;strokeColor=#9673a6;strokeWidth=2;fontFamily=Helvetica;fontSize=12;fontColor=#FFFFFF;endArrow=classic;fillColor=#e1d5e7;" parent="TssPMVuUMwK22EqT7b5r-1" source="TssPMVuUMwK22EqT7b5r-37" target="TssPMVuUMwK22EqT7b5r-23" edge="1">
                    <mxGeometry relative="1" as="geometry">
                        <Array as="points">
                            <mxPoint x="1342" y="660"/>
                            <mxPoint x="1640" y="660"/>
                            <mxPoint x="1640" y="250"/>
                        </Array>
                    </mxGeometry>
                </mxCell>
                <mxCell id="GU1V8cTXYejYF1MwiPmz-1" style="edgeStyle=orthogonalEdgeStyle;shape=connector;rounded=1;html=1;exitX=0;exitY=0.75;exitDx=0;exitDy=0;entryX=1;entryY=0.5;entryDx=0;entryDy=0;labelBackgroundColor=default;strokeColor=#82b366;strokeWidth=2;fontFamily=Helvetica;fontSize=12;fontColor=#FFFFFF;endArrow=classic;fillColor=#d5e8d4;" parent="TssPMVuUMwK22EqT7b5r-1" source="TssPMVuUMwK22EqT7b5r-25" target="GU1V8cTXYejYF1MwiPmz-0" edge="1">
                    <mxGeometry relative="1" as="geometry"/>
                </mxCell>
                <mxCell id="GU1V8cTXYejYF1MwiPmz-12" value="" style="group" parent="TssPMVuUMwK22EqT7b5r-1" vertex="1" connectable="0">
                    <mxGeometry x="931.81" y="-250" width="500" height="220" as="geometry"/>
                </mxCell>
                <mxCell id="GU1V8cTXYejYF1MwiPmz-3" value="" style="rounded=0;whiteSpace=wrap;html=1;strokeColor=#b46504;fontFamily=Helvetica;fontSize=12;fillColor=#fad7ac;" parent="GU1V8cTXYejYF1MwiPmz-12" vertex="1">
                    <mxGeometry y="30" width="500" height="190" as="geometry"/>
                </mxCell>
                <mxCell id="GU1V8cTXYejYF1MwiPmz-5" value="RequiredFieldValidation" style="rounded=0;whiteSpace=wrap;html=1;strokeColor=#666666;fontFamily=Helvetica;fontSize=12;fontColor=#333333;fillColor=#f5f5f5;" parent="GU1V8cTXYejYF1MwiPmz-12" vertex="1">
                    <mxGeometry x="58.19413793103448" y="95" width="137.93103448275863" height="60" as="geometry"/>
                </mxCell>
                <mxCell id="GU1V8cTXYejYF1MwiPmz-6" value="StatusMatriculaValidation" style="rounded=0;whiteSpace=wrap;html=1;strokeColor=#666666;fontFamily=Helvetica;fontSize=12;fontColor=#333333;fillColor=#f5f5f5;" parent="GU1V8cTXYejYF1MwiPmz-12" vertex="1">
                    <mxGeometry x="275.86" y="95" width="154.14" height="60" as="geometry"/>
                </mxCell>
                <mxCell id="GU1V8cTXYejYF1MwiPmz-7" value="Validation" style="text;html=1;strokeColor=none;fillColor=none;align=center;verticalAlign=middle;whiteSpace=wrap;rounded=0;fontFamily=Helvetica;fontSize=12;fontColor=#FFFFFF;" parent="GU1V8cTXYejYF1MwiPmz-12" vertex="1">
                    <mxGeometry x="439.65517241379314" width="60.344827586206904" height="30" as="geometry"/>
                </mxCell>
                <mxCell id="GU1V8cTXYejYF1MwiPmz-15" style="edgeStyle=orthogonalEdgeStyle;shape=connector;rounded=1;html=1;exitX=0.5;exitY=1;exitDx=0;exitDy=0;labelBackgroundColor=default;strokeColor=#d79b00;strokeWidth=2;fontFamily=Helvetica;fontSize=12;fontColor=#FFFFFF;endArrow=classic;fillColor=#ffe6cc;" parent="TssPMVuUMwK22EqT7b5r-1" source="GU1V8cTXYejYF1MwiPmz-6" target="GU1V8cTXYejYF1MwiPmz-13" edge="1">
                    <mxGeometry relative="1" as="geometry">
                        <Array as="points">
                            <mxPoint x="1285" y="32"/>
                            <mxPoint x="1360" y="32"/>
                        </Array>
                    </mxGeometry>
                </mxCell>
                <mxCell id="GU1V8cTXYejYF1MwiPmz-16" style="edgeStyle=orthogonalEdgeStyle;shape=connector;rounded=1;html=1;exitX=0.5;exitY=1;exitDx=0;exitDy=0;entryX=0.25;entryY=0;entryDx=0;entryDy=0;labelBackgroundColor=default;strokeColor=#d79b00;strokeWidth=2;fontFamily=Helvetica;fontSize=12;fontColor=#FFFFFF;endArrow=classic;fillColor=#ffe6cc;" parent="TssPMVuUMwK22EqT7b5r-1" source="GU1V8cTXYejYF1MwiPmz-5" target="GU1V8cTXYejYF1MwiPmz-13" edge="1">
                    <mxGeometry relative="1" as="geometry">
                        <Array as="points">
                            <mxPoint x="1061" y="-60"/>
                            <mxPoint x="1095" y="-60"/>
                            <mxPoint x="1095" y="80"/>
                            <mxPoint x="1296" y="80"/>
                        </Array>
                    </mxGeometry>
                </mxCell>
                <mxCell id="GU1V8cTXYejYF1MwiPmz-18" value="" style="group" parent="TssPMVuUMwK22EqT7b5r-1" vertex="1" connectable="0">
                    <mxGeometry x="641.59" y="530" width="700" height="320" as="geometry"/>
                </mxCell>
                <mxCell id="GU1V8cTXYejYF1MwiPmz-19" value="" style="group" parent="GU1V8cTXYejYF1MwiPmz-18" vertex="1" connectable="0">
                    <mxGeometry width="700" height="320" as="geometry"/>
                </mxCell>
                <mxCell id="TssPMVuUMwK22EqT7b5r-36" value="" style="group" parent="GU1V8cTXYejYF1MwiPmz-19" vertex="1" connectable="0">
                    <mxGeometry width="700" height="320" as="geometry"/>
                </mxCell>
                <mxCell id="TssPMVuUMwK22EqT7b5r-37" value="" style="rounded=0;whiteSpace=wrap;html=1;strokeColor=#9673a6;fontFamily=Helvetica;fontSize=12;fillColor=#e1d5e7;" parent="TssPMVuUMwK22EqT7b5r-36" vertex="1">
                    <mxGeometry y="36.20674048818755" width="700" height="277.5850104094379" as="geometry"/>
                </mxCell>
                <mxCell id="TssPMVuUMwK22EqT7b5r-38" value="App" style="rounded=0;whiteSpace=wrap;html=1;strokeColor=#666666;fontFamily=Helvetica;fontSize=12;fontColor=#333333;fillColor=#f5f5f5;" parent="TssPMVuUMwK22EqT7b5r-36" vertex="1">
                    <mxGeometry x="50" y="138.79457416131828" width="120" height="58.44595497433201" as="geometry"/>
                </mxCell>
                <mxCell id="GU1V8cTXYejYF1MwiPmz-21" style="edgeStyle=orthogonalEdgeStyle;shape=connector;rounded=1;html=1;exitX=1;exitY=0.5;exitDx=0;exitDy=0;entryX=0;entryY=0.5;entryDx=0;entryDy=0;labelBackgroundColor=default;strokeColor=#9673a6;strokeWidth=2;fontFamily=Helvetica;fontSize=12;fontColor=#FFFFFF;endArrow=classic;fillColor=#e1d5e7;" parent="TssPMVuUMwK22EqT7b5r-36" source="TssPMVuUMwK22EqT7b5r-39" target="TssPMVuUMwK22EqT7b5r-41" edge="1">
                    <mxGeometry relative="1" as="geometry"/>
                </mxCell>
                <mxCell id="TssPMVuUMwK22EqT7b5r-39" value="CadeirasAlunosRouter" style="rounded=0;whiteSpace=wrap;html=1;strokeColor=#666666;fontFamily=Helvetica;fontSize=12;fontColor=#333333;fillColor=#f5f5f5;" parent="TssPMVuUMwK22EqT7b5r-36" vertex="1">
                    <mxGeometry x="215" y="138.79457416131828" width="145" height="67.41143357140703" as="geometry"/>
                </mxCell>
                <mxCell id="TssPMVuUMwK22EqT7b5r-40" value="ExpressRouterAdapter" style="rounded=0;whiteSpace=wrap;html=1;strokeColor=#666666;fontFamily=Helvetica;fontSize=12;fontColor=#333333;fillColor=#f5f5f5;" parent="TssPMVuUMwK22EqT7b5r-36" vertex="1">
                    <mxGeometry x="480" y="62.758350179525095" width="140" height="58.965952732962364" as="geometry"/>
                </mxCell>
                <mxCell id="TssPMVuUMwK22EqT7b5r-41" value="UpdateCadeirasAlunosFactory" style="rounded=0;whiteSpace=wrap;html=1;strokeColor=#666666;fontFamily=Helvetica;fontSize=12;fontColor=#333333;fillColor=#f5f5f5;" parent="TssPMVuUMwK22EqT7b5r-36" vertex="1">
                    <mxGeometry x="465" y="180" width="175" height="63.8" as="geometry"/>
                </mxCell>
                <mxCell id="TssPMVuUMwK22EqT7b5r-42" value="Main" style="text;html=1;strokeColor=none;fillColor=none;align=center;verticalAlign=middle;whiteSpace=wrap;rounded=0;fontFamily=Helvetica;fontSize=12;fontColor=#FFFFFF;" parent="TssPMVuUMwK22EqT7b5r-36" vertex="1">
                    <mxGeometry x="640" width="60" height="36.20674048818755" as="geometry"/>
                </mxCell>
                <mxCell id="TssPMVuUMwK22EqT7b5r-43" style="edgeStyle=orthogonalEdgeStyle;shape=connector;rounded=1;html=1;exitX=1;exitY=0.5;exitDx=0;exitDy=0;entryX=0;entryY=0.5;entryDx=0;entryDy=0;labelBackgroundColor=default;strokeColor=#9673a6;strokeWidth=2;fontFamily=Helvetica;fontSize=12;fontColor=#000000;endArrow=classic;fillColor=#e1d5e7;" parent="TssPMVuUMwK22EqT7b5r-36" source="TssPMVuUMwK22EqT7b5r-38" target="TssPMVuUMwK22EqT7b5r-39" edge="1">
                    <mxGeometry relative="1" as="geometry"/>
                </mxCell>
                <mxCell id="TssPMVuUMwK22EqT7b5r-44" style="edgeStyle=orthogonalEdgeStyle;shape=connector;rounded=1;html=1;exitX=1;exitY=0.25;exitDx=0;exitDy=0;labelBackgroundColor=default;strokeColor=#9673a6;strokeWidth=2;fontFamily=Helvetica;fontSize=12;fontColor=#000000;endArrow=classic;fillColor=#e1d5e7;" parent="TssPMVuUMwK22EqT7b5r-36" source="TssPMVuUMwK22EqT7b5r-39" target="TssPMVuUMwK22EqT7b5r-40" edge="1">
                    <mxGeometry relative="1" as="geometry"/>
                </mxCell>
                <mxCell id="TssPMVuUMwK22EqT7b5r-51" style="edgeStyle=orthogonalEdgeStyle;shape=connector;rounded=1;html=1;exitX=0.75;exitY=0;exitDx=0;exitDy=0;entryX=0.5;entryY=1;entryDx=0;entryDy=0;labelBackgroundColor=default;strokeColor=#9673a6;strokeWidth=2;fontFamily=Helvetica;fontSize=12;fontColor=#FFFFFF;endArrow=classic;fillColor=#e1d5e7;" parent="TssPMVuUMwK22EqT7b5r-1" source="TssPMVuUMwK22EqT7b5r-40" target="TssPMVuUMwK22EqT7b5r-27" edge="1">
                    <mxGeometry relative="1" as="geometry">
                        <Array as="points">
                            <mxPoint x="1227" y="450"/>
                            <mxPoint x="1297" y="450"/>
                        </Array>
                    </mxGeometry>
                </mxCell>
                <mxCell id="TssPMVuUMwK22EqT7b5r-49" style="edgeStyle=orthogonalEdgeStyle;shape=connector;rounded=1;html=1;exitX=0.25;exitY=0;exitDx=0;exitDy=0;labelBackgroundColor=default;strokeColor=#9673a6;strokeWidth=2;fontFamily=Helvetica;fontSize=12;fontColor=#FFFFFF;endArrow=classic;fillColor=#e1d5e7;" parent="TssPMVuUMwK22EqT7b5r-1" source="TssPMVuUMwK22EqT7b5r-40" target="TssPMVuUMwK22EqT7b5r-30" edge="1">
                    <mxGeometry relative="1" as="geometry">
                        <Array as="points">
                            <mxPoint x="1050" y="580"/>
                        </Array>
                    </mxGeometry>
                </mxCell>
                <mxCell id="GU1V8cTXYejYF1MwiPmz-25" style="edgeStyle=orthogonalEdgeStyle;shape=connector;rounded=1;html=1;exitX=1;exitY=0.5;exitDx=0;exitDy=0;labelBackgroundColor=default;strokeColor=#9673a6;strokeWidth=2;fontFamily=Helvetica;fontSize=12;fontColor=#000000;endArrow=classic;fillColor=#e1d5e7;" parent="TssPMVuUMwK22EqT7b5r-1" edge="1">
                    <mxGeometry relative="1" as="geometry">
                        <mxPoint x="1261.5900000000001" y="612.885" as="sourcePoint"/>
                        <mxPoint x="1502" y="540" as="targetPoint"/>
                        <Array as="points">
                            <mxPoint x="1262" y="610"/>
                            <mxPoint x="1502" y="610"/>
                        </Array>
                    </mxGeometry>
                </mxCell>
                <mxCell id="z2JHeLDJXfYIkvLtSoSo-1" style="edgeStyle=orthogonalEdgeStyle;shape=connector;rounded=1;html=1;exitX=0.5;exitY=0;exitDx=0;exitDy=0;entryX=0.5;entryY=1;entryDx=0;entryDy=0;labelBackgroundColor=default;strokeColor=#9673a6;strokeWidth=2;fontFamily=Helvetica;fontSize=11;fontColor=default;endArrow=classic;fillColor=#e1d5e7;" edge="1" parent="TssPMVuUMwK22EqT7b5r-1" source="TssPMVuUMwK22EqT7b5r-40" target="TssPMVuUMwK22EqT7b5r-26">
                    <mxGeometry relative="1" as="geometry"/>
                </mxCell>
                <mxCell id="z2JHeLDJXfYIkvLtSoSo-4" style="edgeStyle=orthogonalEdgeStyle;shape=connector;rounded=1;html=1;exitX=0.75;exitY=1;exitDx=0;exitDy=0;entryX=0.553;entryY=0.002;entryDx=0;entryDy=0;entryPerimeter=0;labelBackgroundColor=default;strokeColor=#6c8ebf;strokeWidth=2;fontFamily=Helvetica;fontSize=11;fontColor=default;endArrow=classic;fillColor=#dae8fc;" edge="1" parent="TssPMVuUMwK22EqT7b5r-1" source="TssPMVuUMwK22EqT7b5r-18" target="z2JHeLDJXfYIkvLtSoSo-2">
                    <mxGeometry relative="1" as="geometry"/>
                </mxCell>
            </root>
        </mxGraphModel>
    </diagram>
</mxfile>